<?xml version="1.0" encoding="UTF-8"?>
<svg xmlns="http://www.w3.org/2000/svg" xmlns:xlink="http://www.w3.org/1999/xlink" width="114pt" height="114pt" viewBox="0 0 114 114" version="1.1" >
<g id="surface1">
<path style=" stroke:none;fill-rule:nonzero;fill:rgb(0%,0%,0%);fill-opacity:1;fill:white" d="M 100.113281 41.414062 C 97.703125 41.925781 95.09375 43.335938 92 45.808594 C 88.722656 48.421875 87.015625 49.492188 84.652344 50.363281 C 82.027344 51.34375 79.140625 51.386719 76.460938 50.480469 C 74.242188 49.738281 72.265625 48.554688 69.371094 46.25 C 68.660156 45.675781 67.632812 44.917969 67.101562 44.554688 C 62.050781 41.121094 57.195312 40.425781 52.171875 42.429688 C 50.214844 43.203125 48.371094 44.34375 45.910156 46.304688 C 43.1875 48.476562 40.90625 49.835938 38.832031 50.53125 C 36.417969 51.335938 33.863281 51.328125 31.464844 50.488281 C 29.335938 49.738281 27.359375 48.519531 24.089844 45.914062 C 20.734375 43.25 18.027344 41.890625 15.097656 41.429688 C 13.929688 41.246094 11.773438 41.316406 10.679688 41.570312 C 8.265625 42.117188 5.496094 43.539062 2.992188 45.507812 C 2.574219 45.84375 2.226562 46.144531 2.226562 46.1875 C 2.226562 46.285156 4.71875 49.96875 4.792969 49.96875 C 4.808594 49.96875 5.21875 49.675781 5.691406 49.3125 C 10.207031 45.886719 13.546875 45.269531 17.402344 47.125 C 18.828125 47.8125 19.996094 48.589844 22.042969 50.222656 C 24.144531 51.902344 25.871094 53.046875 27.628906 53.941406 C 29.613281 54.945312 31.136719 55.457031 33.132812 55.800781 C 34.074219 55.96875 36.542969 55.945312 37.585938 55.765625 C 41.011719 55.183594 44.378906 53.472656 48.40625 50.277344 C 50.265625 48.792969 51.488281 47.980469 52.769531 47.363281 C 54.578125 46.488281 55.90625 46.171875 57.6875 46.171875 C 60.667969 46.171875 63.164062 47.257812 66.796875 50.152344 C 70.574219 53.152344 73.457031 54.734375 76.636719 55.527344 C 78.097656 55.898438 79.132812 55.996094 80.941406 55.953125 C 83.488281 55.882812 85.347656 55.386719 88.039062 54.070312 C 89.871094 53.179688 91.699219 51.988281 93.695312 50.398438 C 95.714844 48.785156 96.773438 48.015625 97.746094 47.441406 C 100.347656 45.933594 102.367188 45.660156 104.746094 46.523438 C 106.027344 46.984375 107.710938 48.007812 109.394531 49.347656 C 109.824219 49.683594 110.207031 49.96875 110.242188 49.96875 C 110.277344 49.96875 110.882812 49.109375 111.59375 48.058594 L 112.886719 46.164062 L 112.664062 45.984375 C 109.421875 43.425781 107.277344 42.207031 104.78125 41.519531 C 103.632812 41.199219 101.335938 41.148438 100.113281 41.414062 Z M 100.113281 41.414062 " />
<path style=" stroke:none;fill-rule:nonzero;fill:rgb(0%,0%,0%);fill-opacity:1;fill:white" d="M 100.425781 54.433594 C 98.476562 54.789062 96.152344 55.863281 93.828125 57.507812 C 93.488281 57.753906 92.527344 58.484375 91.691406 59.148438 C 88.449219 61.707031 86.515625 62.855469 84.199219 63.617188 C 82.792969 64.066406 81.894531 64.214844 80.421875 64.214844 C 78.394531 64.214844 76.824219 63.84375 74.722656 62.847656 C 72.933594 61.992188 71.730469 61.214844 69.46875 59.414062 C 67.261719 57.664062 66.191406 56.960938 64.382812 56.066406 C 59.859375 53.832031 55.539062 53.824219 50.988281 56.050781 C 49.429688 56.808594 47.996094 57.746094 46.269531 59.113281 C 43.632812 61.207031 42.492188 61.964844 40.746094 62.8125 C 38.625 63.84375 37.121094 64.214844 35.136719 64.207031 C 33.246094 64.199219 31.796875 63.835938 29.792969 62.855469 C 28.117188 62.042969 26.738281 61.109375 24.136719 59.035156 C 21.097656 56.597656 18.363281 55.183594 15.585938 54.59375 C 14.535156 54.363281 12.121094 54.363281 11.007812 54.585938 C 9.101562 54.964844 6.894531 55.925781 4.898438 57.25 C 3.410156 58.230469 2.269531 59.128906 2.28125 59.308594 C 2.28125 59.394531 2.851562 60.289062 3.535156 61.292969 L 4.792969 63.128906 L 5.09375 62.875 C 5.253906 62.734375 5.769531 62.34375 6.234375 62 C 10.484375 58.917969 13.722656 58.414062 17.507812 60.25 C 18.800781 60.878906 20.003906 61.691406 21.863281 63.164062 C 23.628906 64.570312 24.980469 65.53125 26.230469 66.273438 C 31.574219 69.449219 36.570312 69.867188 41.824219 67.554688 C 43.945312 66.617188 46 65.292969 48.84375 63.015625 C 50.570312 61.628906 52.394531 60.515625 53.882812 59.953125 C 56.164062 59.078125 58.648438 59.015625 60.964844 59.773438 C 62.761719 60.367188 64.445312 61.375 66.929688 63.351562 C 69.796875 65.628906 72.59375 67.289062 74.992188 68.125 C 81.296875 70.34375 87.226562 68.789062 94.183594 63.101562 C 96.675781 61.0625 98.40625 60.003906 100.105469 59.457031 C 101.203125 59.105469 102.625 59.050781 103.800781 59.316406 C 105.289062 59.660156 107.230469 60.738281 109.316406 62.378906 L 110.25 63.113281 L 111.550781 61.214844 C 113.074219 58.988281 113.082031 59.367188 111.480469 58.160156 C 107.933594 55.484375 105.011719 54.273438 102.117188 54.300781 C 101.574219 54.300781 100.808594 54.363281 100.425781 54.433594 Z M 100.425781 54.433594 "/>
<path style=" stroke:none;fill-rule:nonzero;fill:rgb(0%,0%,0%);fill-opacity:1;fill:white" d="M 100.640625 67.492188 C 97.976562 67.921875 95.019531 69.496094 91.601562 72.300781 C 88.359375 74.96875 85.417969 76.539062 82.648438 77.121094 C 82.285156 77.191406 81.484375 77.28125 80.867188 77.308594 C 77.367188 77.464844 73.886719 76.019531 69.648438 72.65625 C 67.179688 70.695312 65.78125 69.769531 64.070312 68.984375 C 58.113281 66.246094 52.464844 67.242188 46.347656 72.144531 C 44.148438 73.898438 43.285156 74.507812 41.742188 75.390625 C 38.546875 77.210938 35.535156 77.742188 32.578125 76.988281 C 30.128906 76.382812 27.894531 75.128906 24.757812 72.609375 C 21.082031 69.664062 18.597656 68.320312 15.640625 67.695312 C 14.367188 67.429688 12.175781 67.429688 10.929688 67.695312 C 8.878906 68.136719 6.859375 69.035156 4.808594 70.394531 C 3.570312 71.226562 2.226562 72.257812 2.226562 72.382812 C 2.226562 72.433594 4.640625 76.046875 4.765625 76.167969 C 4.78125 76.1875 5.175781 75.902344 5.636719 75.542969 C 7.933594 73.757812 9.9375 72.753906 11.917969 72.382812 C 12.253906 72.320312 12.914062 72.292969 13.652344 72.328125 C 15.078125 72.382812 15.941406 72.601562 17.457031 73.328125 C 18.773438 73.953125 19.886719 74.695312 21.792969 76.203125 C 23.53125 77.589844 24.5625 78.339844 25.632812 79.003906 C 28.394531 80.714844 30.914062 81.6875 33.460938 82.023438 C 34.628906 82.171875 37.015625 82.074219 38.164062 81.835938 C 41.449219 81.148438 44.628906 79.472656 48.449219 76.417969 C 51.292969 74.136719 53.332031 73.035156 55.683594 72.515625 C 56.582031 72.3125 58.753906 72.3125 59.671875 72.515625 C 60.730469 72.742188 61.417969 72.992188 62.566406 73.539062 C 63.867188 74.15625 65.015625 74.914062 66.664062 76.222656 C 69.628906 78.578125 71.480469 79.753906 73.796875 80.742188 C 78.578125 82.800781 83.113281 82.65625 87.949219 80.292969 C 90.09375 79.25 91.484375 78.332031 94.203125 76.179688 C 97.382812 73.652344 99.214844 72.628906 101.15625 72.292969 C 101.933594 72.160156 103.277344 72.242188 104.113281 72.480469 C 105.511719 72.875 107.410156 73.960938 109.324219 75.460938 C 109.8125 75.851562 110.242188 76.152344 110.277344 76.132812 C 110.304688 76.117188 110.902344 75.257812 111.59375 74.234375 C 112.824219 72.425781 112.859375 72.363281 112.699219 72.214844 C 112.300781 71.835938 110.660156 70.625 109.679688 69.980469 C 108.476562 69.195312 106.632812 68.269531 105.628906 67.941406 C 104.042969 67.429688 102.101562 67.253906 100.640625 67.492188 Z M 100.640625 67.492188 "/>
</g>
</svg>
