<?xml version="1.0" encoding="UTF-8"?>
<svg xmlns="http://www.w3.org/2000/svg" xmlns:xlink="http://www.w3.org/1999/xlink" width="66pt" height="100pt" viewBox="0 0 66 100" version="1.1">
<g id="surface1">
<path style=" stroke:none;fill-rule:nonzero;fill:rgb(0%,0%,0%);fill-opacity:1;fill:white" d="M 60.261719 65.492188 C 61.140625 56.378906 59.726562 47.644531 54.347656 37.304688 C 53.25 44.578125 50.726562 48.675781 45.261719 53.96875 C 42.875 39.644531 35.082031 26.261719 27.664062 13.859375 C 28.097656 30.328125 22.789062 53.855469 11.828125 66.539062 C 10.484375 59.925781 11.449219 56.515625 10.582031 49.847656 C 9.113281 55.804688 6.050781 59.554688 5.207031 67.757812 C 4.523438 74.453125 6.386719 80.144531 9.84375 84.511719 C 13.699219 89.378906 19.550781 92.667969 26.097656 93.949219 C 45.0625 97.660156 58.453125 84.257812 60.261719 65.492188 Z M 47.921875 95.523438 C 44.113281 98.03125 40.457031 99.289062 36.671875 99.703125 C 32.984375 100.109375 29.253906 99.710938 25.164062 98.917969 C 17.484375 97.414062 10.574219 93.496094 5.953125 87.660156 C -8.558594 69.339844 7.851562 50.300781 9.015625 29.289062 C 14.085938 35.535156 14.601562 39.1875 15.515625 47.394531 C 15.613281 48.261719 15.691406 49.132812 15.757812 50 C 17.855469 44.644531 19.429688 38.996094 20.523438 33.417969 C 22.90625 21.246094 23.035156 12.097656 20.667969 0.132812 C 29.457031 5.492188 34.027344 12.535156 39.035156 21.730469 C 42.121094 27.414062 45.078125 33.355469 47.71875 40.699219 C 49.609375 33.132812 50.050781 30.683594 48.097656 22.601562 C 71.0625 37.242188 72.917969 79.023438 47.921875 95.523438 Z M 47.921875 95.523438 "/>
</g>
</svg>
