<?xml version="1.0" encoding="UTF-8"?>
<svg xmlns="http://www.w3.org/2000/svg" xmlns:xlink="http://www.w3.org/1999/xlink" width="20pt" height="20pt" viewBox="0 0 20 20" version="1.1">
<g id="surface1">
<path style=" stroke:none;fill-rule:nonzero;fill:rgb(1.176471%,0.392157%,1.568627%);fill-opacity:1;fill:white" d="M 15.902344 5.601562 C 13.824219 5.601562 11.542969 6.757812 10 8.515625 C 8.453125 6.757812 6.175781 5.601562 4.097656 5.601562 C 2.117188 5.601562 0 6.753906 0 10 C 0 13.246094 2.117188 14.398438 4.097656 14.398438 C 6.175781 14.398438 8.453125 13.242188 10 11.484375 C 11.542969 13.242188 13.824219 14.398438 15.902344 14.398438 C 17.882812 14.398438 20 13.246094 20 10 C 20 6.753906 17.882812 5.601562 15.902344 5.601562 Z M 4.097656 12.640625 C 2.585938 12.640625 1.816406 11.753906 1.816406 10 C 1.816406 8.25 2.585938 7.359375 4.097656 7.359375 C 5.769531 7.359375 7.710938 8.445312 8.902344 10 C 7.710938 11.554688 5.769531 12.640625 4.097656 12.640625 Z M 15.902344 12.640625 C 14.230469 12.640625 12.289062 11.554688 11.097656 10 C 12.289062 8.445312 14.230469 7.359375 15.902344 7.359375 C 17.414062 7.359375 18.183594 8.25 18.183594 10 C 18.179688 11.753906 17.414062 12.640625 15.902344 12.640625 Z M 15.902344 12.640625 "/>
</g>
</svg>
